Coordinates
version=1
nRows=17
nColumns=36
inDegrees=yes

Units are S.I. units (second, meters, Newtons, ...)
If the header above contains a line with 'inDegrees', this indicates whether rotational values are in degrees (yes) or radians (no).

endheader
time	pelvis_tilt	pelvis_list	pelvis_rotation	pelvis_tx	pelvis_ty	pelvis_tz	hip_flexion_r	hip_adduction_r	hip_rotation_r	knee_angle_r	knee_angle_r_beta	ankle_angle_r	subtalar_angle_r	mtp_angle_r	hip_flexion_l	hip_adduction_l	hip_rotation_l	knee_angle_l	knee_angle_l_beta	ankle_angle_l	subtalar_angle_l	mtp_angle_l	lumbar_extension	lumbar_bending	lumbar_rotation	arm_flex_r	arm_add_r	arm_rot_r	elbow_flex_r	pro_sup_r	arm_flex_l	arm_add_l	arm_rot_l	elbow_flex_l	pro_sup_l
      0.31000000	      3.05803254	      0.49773501	      3.01762396	      0.27068717	      0.91218063	     -0.23648198	     -1.05280016	      6.50759039	      4.09769748	     12.13158597	      0.21173612	     10.00328750	    -10.49050824	     -6.75854115	     22.84269717	     -0.46621691	     -2.00877603	     62.90339778	      1.09787140	     -0.94180600	     -5.41007128	     -6.75854115	    -13.60637656	     -0.27719075	      1.04640337	      6.16894947	     -8.00346008	      1.58382984	     33.34887054	     93.34736467	      3.80366842	     -6.90066121	     -3.01473283	     23.38586618	     92.36943460
      0.32000000	      2.95665628	      0.47325397	      2.72026217	      0.28377860	      0.91208297	     -0.23615261	     -2.17367702	      6.56932327	      4.34476086	     11.55953771	      0.20175199	     10.26009874	    -10.34038210	     -6.77440392	     24.12844550	     -0.27460919	     -1.64272335	     60.62614686	      1.05812588	     -0.42142622	     -5.76486798	     -6.77440392	    -13.56727505	     -0.41417218	      1.52516103	      6.67886571	     -8.25093770	      2.10516195	     34.64438137	     93.79068261	      2.99704510	     -7.04730705	     -3.13186204	     22.49289316	     92.14265018
      0.33000000	      2.72047369	      0.41790451	      2.46021944	      0.29685207	      0.91147932	     -0.23591748	     -3.09483379	      6.64284377	      4.52231924	     11.10079569	      0.19374543	     10.51726391	    -10.14968085	     -6.78124737	     25.44953202	     -0.10452707	     -1.22166949	     58.09257413	      1.01390669	      0.08040340	     -6.07826134	     -6.78124737	    -13.38043057	     -0.51438450	      1.90124328	      7.25957240	     -8.39603661	      2.34089171	     35.69901561	     94.01308957	      2.08199463	     -7.22119735	     -3.27115559	     21.78826554	     91.99730925
      0.34000000	      2.74952308	      0.33421837	      2.16859660	      0.31007547	      0.91096869	     -0.23572904	     -4.33905934	      6.72797244	      4.62473905	     10.59833539	      0.18497585	     11.04984853	     -9.60855698	     -6.80403648	     26.27141127	      0.01118540	     -0.83166354	     55.18526298	      0.96316454	      0.28916161	     -6.97758077	     -6.80403648	    -13.50335144	     -0.55344964	      2.48509612	      7.63366423	     -8.75447719	      2.84685762	     37.21301733	     94.56990309	      1.42411487	     -7.28971735	     -3.44662652	     20.87479231	     91.65406821
      0.35000000	      2.50052742	      0.24524860	      1.87699478	      0.32352953	      0.90980194	     -0.23556732	     -5.22864738	      6.80967438	      4.85095246	     10.24670353	      0.17883871	     11.38086494	     -9.38274173	     -6.80987777	     27.25176212	      0.07747433	     -0.48916641	     52.05505271	      0.90853206	      0.81717490	     -7.32511664	     -6.80987777	    -13.25550803	     -0.58659423	      2.88368640	      8.16826237	     -8.89411591	      3.05915211	     38.15348747	     94.75524996	      0.49208951	     -7.41787331	     -3.55107893	     20.25366479	     91.52204829
      0.36000000	      2.68523651	      0.20135519	      1.49330343	      0.33727764	      0.90905458	     -0.23539038	     -6.67821898	      6.81907557	      5.00659126	      9.76398931	      0.17041376	     12.07361885	     -8.76099770	     -6.82677043	     27.49403150	      0.11536956	     -0.34625567	     48.51302324	      0.84671199	      0.97773368	     -8.38371481	     -6.82677043	    -13.52826088	     -0.66997314	      3.54545664	      8.50819807	     -9.29737247	      3.65086045	     39.52886375	     95.18996765	     -0.15978274	     -7.47029415	     -3.66458260	     19.37595551	     91.23225144
      0.37000000	      2.47540547	      0.15656730	      1.09591678	      0.35124878	      0.90754321	     -0.23524002	     -7.62832394	      6.79941291	      5.25877326	      9.45600911	      0.16503849	     12.47598220	     -8.40114584	     -6.83426242	     28.03586176	      0.10964231	     -0.28299039	     44.80293779	      0.78195878	      1.49811054	     -8.84253509	     -6.83426242	    -13.26961211	     -0.76064075	      4.06268263	      8.92164302	     -9.48098133	      3.95062644	     40.42524624	     95.40598995	     -1.05205446	     -7.57436202	     -3.74171928	     18.72060245	     91.07470494
      0.38000000	      2.58578536	      0.10614903	      0.71269440	      0.36540443	      0.90624481	     -0.23524732	     -8.95959488	      6.74198466	      5.15314148	      9.09297925	      0.15870243	     13.30491553	     -7.25709481	     -6.86353410	     28.03453168	      0.09159543	     -0.32488855	     40.76045604	      0.71140416	      1.49293499	    -10.02655462	     -6.86353410	    -13.40075642	     -0.81222065	      4.66760732	      9.21416661	     -9.84118472	      4.51447737	     41.55265742	     96.01718711	     -1.68936388	     -7.62798247	     -3.61626523	     17.75981972	     90.63829904
      0.39000000	      2.50553522	      0.00007421	      0.33387456	      0.37957604	      0.90443091	     -0.23526296	    -10.05238458	      6.75622744	      5.30981532	      8.81066180	      0.15377506	     13.87913435	     -6.81722709	     -6.87699908	     28.15114254	     -0.05476864	     -0.58360279	     36.62996200	      0.63931344	      2.20021113	    -10.25640973	     -6.87699908	    -13.29470132	     -0.79502088	      5.23990228	      9.54972124	    -10.10917895	      4.87444165	     42.43103220	     96.33203441	     -2.41861832	     -7.66568823	     -3.62226543	     17.00977257	     90.39357738
      0.40000000	      2.25502667	     -0.14207244	      0.01559485	      0.39380332	      0.90215421	     -0.23540465	    -10.92437220	      6.80458100	      5.42302781	      8.60005465	      0.15009927	     14.28257523	     -6.41704505	     -6.88523045	     28.37043568	     -0.22414849	     -0.90806396	     32.42397125	      0.56590505	      2.99144196	    -10.23329741	     -6.88523045	    -12.96000093	     -0.72830242	      5.73598962	      9.83343879	    -10.33946836	      5.19042490	     43.20831694	     96.56294383	     -3.15364757	     -7.70432524	     -3.66802584	     16.27767926	     90.20429512
      0.41000000	      2.21777861	     -0.29812321	     -0.24246906	      0.40800219	      0.89996478	     -0.23574864	    -12.00333346	      6.82505505	      5.19042132	      8.42395688	      0.14702578	     15.00510276	     -5.32177500	     -6.90614221	     28.26882456	     -0.40745092	     -1.49838041	     28.12752858	      0.49091798	      3.88154715	     -9.80890989	     -6.90614221	    -12.92619845	     -0.61657558	      6.18333323	     10.09431084	    -10.64127209	      5.62284969	     44.12355171	     97.06293388	     -3.65293520	     -7.69173690	     -3.51364937	     15.16318844	     89.79026720
      0.42000000	      1.99263920	     -0.44583994	     -0.47637314	      0.42227549	      0.89735303	     -0.23620865	    -12.75254234	      6.81049862	      4.73260721	      8.50986151	      0.14852510	     15.91737931	     -3.97776049	     -6.94004855	     28.29372838	     -0.56708486	     -2.25537566	     23.87411456	      0.41668191	      5.19553131	     -8.52123107	     -6.94004855	    -12.61891845	     -0.50505024	      6.65140349	     10.26282961	    -10.88274985	      5.85993496	     44.77543996	     97.76993337	     -4.12469484	     -7.71485844	     -2.97893669	     14.09061836	     89.16395875
      0.43000000	      1.78226304	     -0.55950054	     -0.72552111	      0.43657784	      0.89466580	     -0.23671786	    -13.48761498	      6.75414293	      4.47930622	      8.66105373	      0.15116390	     16.54715596	     -3.16152161	     -6.96484918	     28.23350443	     -0.66275833	     -3.09383599	     19.73016506	      0.34435634	      6.46115396	     -6.93434304	     -6.96484918	    -12.34888545	     -0.43242669	      7.06921059	     10.44285582	    -11.08323624	      6.07859723	     45.38698262	     98.27968981	     -4.55539920	     -7.71235529	     -2.62976699	     13.00162195	     88.63497701
      0.44000000	      1.56659613	     -0.63144396	     -0.99149022	      0.45093627	      0.89189373	     -0.23728002	    -14.10811202	      6.61591748	      4.07150777	      9.02011784	      0.15743076	     17.29062214	     -2.08532166	     -6.99251508	     28.13312473	     -0.69710844	     -4.02706971	     15.83973808	      0.27645558	      7.91212698	     -4.65471958	     -6.99251508	    -12.07775777	     -0.41113128	      7.50193557	     10.58513464	    -11.25069359	      6.25015294	     45.89762849	     98.81672846	     -4.88698387	     -7.71544891	     -2.09452663	     11.81727496	     88.01379615
      0.45000000	      1.41087965	     -0.63414898	     -1.27171853	      0.46536816	      0.88917859	     -0.23794665	    -14.73032989	      6.38003392	      3.73145350	      9.51034567	      0.16598684	     17.91131824	     -1.23466374	     -7.01350197	     27.90312170	     -0.59244742	     -4.72722300	     12.25164394	      0.21383153	      9.11677395	     -2.46303551	     -7.01350197	    -11.88074657	     -0.46828404	      7.89581086	     10.71032881	    -11.39737889	      6.40534756	     46.33543107	     99.21424016	     -5.15588980	     -7.69326185	     -1.67635915	     10.60855709	     87.47008413
      0.46000000	      1.02476162	     -0.65828377	     -1.60666759	      0.47984336	      0.88616645	     -0.23854361	    -15.02666484	      6.18298103	      3.81637728	     10.15743105	      0.17728062	     18.06765132	     -1.05917453	     -7.01790310	     27.91502351	     -0.45954205	     -4.71317530	      9.17895077	      0.16020291	      9.94143230	     -1.34280434	     -7.01790310	    -11.42366160	     -0.52836589	      8.27427425	     10.80991603	    -11.43537657	      6.52190892	     46.58653306	     99.31818218	     -5.60814441	     -7.68403086	     -1.66631488	      9.94149723	     87.29868073
      0.47000000	      1.10315153	     -0.54848800	     -1.96770196	      0.49472694	      0.88374746	     -0.23922269	    -15.70741756	      5.69125676	      2.81463853	     11.03067851	      0.19252166	     19.21437874	      0.96647263	     -7.05835730	     27.54240688	     -0.34290681	     -5.87378835	      7.04869466	      0.12302293	     11.65236938	      2.30795074	     -7.05835730	    -11.44595999	     -0.73980322	      8.83166600	     10.76612389	    -11.54966266	      6.45142480	     46.86002114	     99.98558122	     -5.55026922	     -7.69563456	     -0.17226470	      8.36631463	     86.13338290
